# xmcd CD database file
#
# Track frame offsets:
#	150
#	34074
#	55891
#	77816
#	92256
#	111541
#	129864
#	156797
#	175434
#	195715
#	210280
#	227248
#	242311
#	264584
#	283123
#	304616
#	325548
#
# Disc length: 4718 seconds
#
# Revision: 0
# Processed by: cddbd v1.5.2PL0 Copyright (c) Steve Scherf et al.
# Submitted via: CDex 1.51
#
DISCID=dc126c11
DTITLE=Eric Burdon - It's My Life CD2
DYEAR=2005
DGENRE=Blues
TTITLE0=No More Elmore
TTITLE1=Road, The
TTITLE2=Take It Easy
TTITLE3=Dey Won't
TTITLE4=Wall Of Silence
TTITLE5=Streetwalker
TTITLE6=Lights Out
TTITLE7=Devil's Daughter
TTITLE8=Power Company
TTITLE9=(I'm A) Wicked, Wicked Man
TTITLE10=I'm Ready
TTITLE11=Be My Baby
TTITLE12=Stop What You're Doin'
TTITLE13=Heart Attack
TTITLE14=Who Gives A F***?
TTITLE15=Sweet Blood Call
TTITLE16=It Hurts Me Too
EXTD=YEAR: 2005
EXTT0=
EXTT1=
EXTT2=
EXTT3=
EXTT4=
EXTT5=
EXTT6=
EXTT7=
EXTT8=
EXTT9=
EXTT10=
EXTT11=
EXTT12=
EXTT13=
EXTT14=
EXTT15=
EXTT16=
PLAYORDER=
